<svg width="31" height="26" viewBox="0 0 31 26" fill="none" xmlns="http://www.w3.org/2000/svg">
<path d="M30.5213 0.711815C30.1426 0.252746 29.5755 0 28.9241 0C28.5701 0 28.195 0.0738543 27.8094 0.219922L1.56859 10.1499C0.176013 10.6768 -0.0115404 11.4673 0.000521675 11.8917C0.0125837 12.3161 0.245074 13.095 1.66556 13.543C1.67407 13.5456 1.68259 13.5482 1.6911 13.5505L7.13416 15.0946L10.0778 23.439C10.4791 24.5766 11.38 25.2833 12.4292 25.2833C13.0907 25.2833 13.7413 25.0085 14.3108 24.4889L17.6776 21.4159L22.5608 25.3137C22.5613 25.3142 22.562 25.3144 22.5625 25.3149L22.6088 25.352C22.6131 25.3552 22.6176 25.3588 22.6218 25.362C23.1646 25.7794 23.7571 25.9998 24.3358 26H24.3361C25.4668 26 26.3672 25.1703 26.6295 23.8864L30.929 2.84046C31.1017 1.99571 30.9569 1.23981 30.5213 0.711815ZM8.95505 14.8013L19.4564 9.48313L12.9176 16.3708C12.8104 16.4836 12.7345 16.6217 12.6971 16.772L11.4363 21.8349L8.95505 14.8013ZM13.0803 23.1642C13.0368 23.2039 12.993 23.2393 12.9492 23.2718L14.119 18.5752L16.2469 20.2738L13.0803 23.1642ZM29.1488 2.48291L24.8493 23.529C24.8079 23.7304 24.6757 24.1991 24.3358 24.1991C24.1679 24.1991 23.9569 24.1084 23.741 23.9436L18.2076 19.5268C18.2069 19.5261 18.2059 19.5254 18.205 19.525L14.9125 16.8967L24.3685 6.93621C24.6712 6.61735 24.6986 6.12897 24.4335 5.77869C24.1681 5.42841 23.6873 5.31821 23.294 5.5175L7.74152 13.3939L2.22443 11.8291L28.4572 1.90216C28.6789 1.81822 28.8335 1.80064 28.9241 1.80064C28.9797 1.80064 29.0786 1.8072 29.1152 1.85198C29.1635 1.91036 29.225 2.10942 29.1488 2.48291Z" fill="#84786C"/>
</svg>
