<svg width="226" height="50" viewBox="0 0 226 50" fill="none" xmlns="http://www.w3.org/2000/svg">
<g clip-path="url(#clip0_156_482)">
<path d="M32.1951 12.2009C31.6227 11.1927 30.7642 10.1846 29.9057 9.32052C27.187 6.58419 23.4667 5 19.4602 5C15.4538 5 11.8766 6.58419 9.01481 9.32052C6.29614 12.0568 4.72217 15.8013 4.72217 19.8338C4.72217 23.8662 6.29614 27.4667 9.01481 30.347C9.87334 31.2111 10.875 32.0752 11.8766 32.6513C10.875 27.1786 12.592 21.418 16.7416 17.2415C21.0342 12.7769 26.7577 11.1927 32.1951 12.2009Z" fill="#E6E6E6"/>
<path d="M41.4958 41.8684C50.9396 32.3632 50.9396 16.8094 41.4958 7.30425C32.052 -2.34491 16.5984 -2.34491 7.15464 7.30425C14.0229 0.391421 25.0406 0.391421 31.9089 7.30425C38.7771 14.2171 38.7771 25.3064 31.9089 32.2192C25.0406 38.988 13.8798 38.988 7.15464 32.0752C0.286409 25.3064 0.286409 14.0731 7.15464 7.30425C-2.28918 16.8094 -2.28918 32.3632 7.15464 41.8684C16.5984 51.5175 32.052 51.5175 41.4958 41.8684Z" fill="#E6E6E6"/>
<path d="M72.9749 16.6658C70.5425 16.6658 69.2547 17.5299 69.2547 19.114C69.2547 19.8341 69.5408 20.4102 70.1132 20.8423C70.6855 21.2743 72.1164 21.8504 74.4058 22.5705C76.6952 23.2905 78.2692 24.1546 79.1277 25.0188C79.9863 25.8829 80.5586 27.323 80.5586 29.3393C80.5586 31.7876 79.8432 33.6598 78.2692 34.9559C76.6952 36.2521 74.8351 36.8282 72.4026 36.8282C70.6855 36.8282 68.3961 36.5401 65.8205 35.9641L64.5328 35.676L64.962 31.9316C67.9669 32.3636 70.3994 32.5076 71.9733 32.5076C74.4058 32.5076 75.5505 31.4995 75.5505 29.4833C75.5505 28.7632 75.2644 28.1871 74.692 27.7551C74.1197 27.323 72.975 26.891 71.401 26.4589C68.6823 25.7388 66.8222 24.7307 65.8205 23.7226C64.6758 22.7145 64.2466 21.2743 64.2466 19.4021C64.2466 17.0978 64.962 15.3696 66.3929 14.2175C67.8238 13.0653 69.827 12.4893 72.2595 12.4893C73.9766 12.4893 76.1229 12.7773 78.6985 13.2093L79.9863 13.4974L79.557 17.2418C76.6952 16.8098 74.4058 16.6658 72.9749 16.6658Z" fill="#E6E6E6"/>
<path d="M84.1357 16.9537V12.2012H88.7146V16.9537H84.1357ZM84.1357 36.3961V19.114H88.7146V36.3961H84.1357Z" fill="#E6E6E6"/>
<path d="M97.5861 36.3962H93.0073V19.1142H97.5861V20.1223C99.1601 19.2582 100.448 18.6821 101.593 18.6821C103.453 18.6821 104.884 19.2582 105.885 20.2663C108.032 19.1142 109.892 18.6821 111.609 18.6821C113.898 18.6821 115.472 19.4022 116.331 20.6984C117.189 21.9945 117.618 24.1548 117.618 27.0351V36.3962H113.04V27.1791C113.04 25.739 112.897 24.5868 112.61 23.8667C112.324 23.1467 111.609 22.8586 110.75 22.8586C110.035 22.8586 109.176 23.0026 108.032 23.2907L107.459 23.4347C107.602 25.1629 107.602 26.4591 107.602 27.3232V36.2522H103.023V27.3232C103.023 25.595 102.88 24.4428 102.594 23.7227C102.308 23.0026 101.593 22.7146 100.591 22.7146C99.7325 22.7146 98.8739 22.8586 98.0154 23.1467L97.5861 23.2907V36.3962Z" fill="#E6E6E6"/>
<path d="M121.768 43.7407V19.2577H126.347V20.1218C127.778 19.2577 129.209 18.8257 130.21 18.8257C132.5 18.8257 134.217 19.5458 135.361 20.9859C136.506 22.4261 137.078 24.7304 137.078 28.0428C137.078 31.3552 136.506 33.6595 135.218 34.9556C134.074 36.2518 132.07 36.9718 129.209 36.9718C128.493 36.9718 127.635 36.9718 126.776 36.8278H126.347V43.8847H121.768V43.7407ZM129.352 22.8582C128.493 22.8582 127.635 23.0022 126.776 23.4342L126.347 23.5782V32.6513C127.349 32.7954 128.207 32.7954 128.922 32.7954C130.21 32.7954 131.212 32.3633 131.641 31.6432C132.07 30.9231 132.357 29.483 132.357 27.6107C132.357 24.4424 131.355 22.8582 129.352 22.8582Z" fill="#E6E6E6"/>
<path d="M140.656 36.3961V12.2012H145.235V36.3961H140.656V36.3961Z" fill="#E6E6E6"/>
<path d="M154.392 32.0753C154.964 32.5073 155.68 32.7954 156.681 32.7954C158.828 32.7954 160.688 32.7953 162.405 32.6513L163.406 32.5073V35.9637C160.831 36.5398 158.398 36.9718 156.252 36.9718C153.676 36.9718 151.816 36.2518 150.672 34.9556C149.527 33.5154 148.955 31.3552 148.955 28.1868C148.955 21.9941 151.53 18.8257 156.538 18.8257C161.546 18.8257 163.979 21.418 163.979 26.6026L163.693 29.771H153.533C153.533 30.9231 153.82 31.6432 154.392 32.0753ZM159.4 26.3146C159.4 24.8744 159.114 24.0103 158.685 23.4342C158.255 22.8582 157.54 22.5701 156.395 22.5701C155.25 22.5701 154.535 22.8582 154.106 23.4342C153.676 24.0103 153.39 25.0184 153.39 26.3146H159.4Z" fill="#E6E6E6"/>
<path d="M188.447 36.3962H175.14V12.9214H179.862V32.2197H188.447V36.3962Z" fill="#E6E6E6"/>
<path d="M191.022 16.9537V12.2012H195.601V16.9537H191.022ZM191.022 36.3961V19.114H195.601V36.3961H191.022Z" fill="#E6E6E6"/>
<path d="M205.332 23.1464V36.54H200.753V23.1464H198.893V19.258H200.753V18.5379C200.753 16.0896 201.182 14.3614 201.897 13.3533C202.613 12.3451 203.901 11.9131 205.761 11.9131C206.619 11.9131 207.621 12.0571 208.909 12.2011L209.624 12.3451V16.0896C208.623 16.0896 207.764 16.0896 207.049 16.0896C206.333 16.0896 205.904 16.2336 205.618 16.6657C205.332 17.0977 205.332 17.6738 205.332 18.5379V19.258H209.481V23.1464H205.332Z" fill="#E6E6E6"/>
<path d="M216.636 32.0753C217.208 32.5073 217.923 32.7954 218.925 32.7954C221.071 32.7954 222.931 32.7953 224.649 32.6513L225.65 32.5073V35.9637C223.075 36.5398 220.642 36.9718 218.496 36.9718C215.92 36.9718 214.06 36.2518 212.915 34.9556C211.771 33.5154 211.198 31.3552 211.198 28.1868C211.198 21.9941 213.774 18.8257 218.782 18.8257C223.79 18.8257 226.222 21.418 226.222 26.6026L225.936 29.771H215.777C215.777 30.9231 216.063 31.6432 216.636 32.0753ZM221.644 26.3146C221.644 24.8744 221.357 24.0103 220.928 23.4342C220.499 22.8582 219.784 22.5701 218.639 22.5701C217.494 22.5701 216.779 22.8582 216.349 23.4342C215.92 24.0103 215.634 25.0184 215.634 26.3146H221.644Z" fill="#E6E6E6"/>
</g>
<defs>
<clipPath id="clip0_156_482">
<rect width="226.222" height="48.9658" fill="white" transform="translate(0 0.103516)"/>
</clipPath>
</defs>
</svg>
