<svg width="121" height="59" viewBox="0 0 121 59" fill="none" xmlns="http://www.w3.org/2000/svg">
<g clip-path="url(#clip0_156_617)">
<path d="M114.874 29.8747C113.992 28.8954 113.111 27.9161 112.23 27.0347C111.74 26.5451 111.348 26.0554 110.858 25.5658L107.823 22.4319V18.025H103.514L98.1274 12.5408C98.0294 12.4429 97.9315 12.4429 97.8336 12.4429C97.7357 12.4429 97.6377 12.5408 97.5398 12.5408L92.7411 17.3395C92.2515 17.8291 91.6639 18.4167 91.1742 18.9064C90.1949 19.8857 89.2156 20.865 88.3342 21.8443L83.9273 26.4471C83.4376 26.9368 82.948 27.5244 82.4583 28.014C82.3604 28.112 82.3604 28.2099 82.2624 28.2099L74.4279 18.7105V7.74219H65.4182L59.1506 0.103516L36.6263 27.5244C36.4304 27.3285 36.2346 27.1327 36.0387 26.9368C35.549 26.4471 35.1573 25.9575 34.6677 25.4678L30.5545 21.1588C29.4773 20.0816 28.4 18.9064 27.3228 17.8291L21.9365 12.345C21.8386 12.247 21.7407 12.247 21.6427 12.247C21.5448 12.247 21.4469 12.345 21.3489 12.345L16.5503 17.1436C16.1586 17.6333 15.6689 18.025 15.1792 18.5147L15.7668 17.8291H10.3806V23.4113L7.63851 26.2513C7.14885 26.7409 6.65919 27.3285 6.16953 27.8182C5.19022 28.7975 4.30883 29.8747 3.32951 30.8541C3.13365 31.0499 3.13365 31.3437 3.32951 31.4417C3.42745 31.5396 3.52538 31.5396 3.62331 31.5396C3.72124 31.5396 3.81917 31.5396 3.9171 31.4417C4.89642 30.5603 5.97367 29.581 6.95299 28.6016C7.44265 28.112 8.03024 27.6223 8.51989 27.1327L13.1227 22.7257C14.102 21.7464 15.0813 20.865 16.0606 19.8857C16.5503 19.3961 17.1379 18.8085 17.6275 18.3188L21.4469 14.4995L25.9517 18.9064C27.029 19.9836 28.1062 21.0609 29.2814 22.1381L33.5904 26.2513C34.0801 26.7409 34.5697 27.1327 35.0594 27.6223C35.2552 27.8182 35.549 28.014 35.7449 28.2099L33.0028 31.5396H55.3312L53.2747 20.1795L62.2844 20.5712L60.7175 31.7354H79.9121H85.2004L83.0459 29.0913C83.1438 28.9934 83.2418 28.8954 83.3397 28.7975C83.8294 28.3078 84.4169 27.8182 84.9066 27.3285L89.5094 22.9216C90.4887 21.9423 91.468 21.0609 92.4473 20.0816C92.937 19.5919 93.5246 19.0043 94.0142 18.5147L97.8336 14.6953L102.338 19.1023C103.416 20.1795 104.493 21.2568 105.668 22.334L109.977 26.4471C110.467 26.9368 110.956 27.3285 111.446 27.8182C112.425 28.6996 113.307 29.581 114.286 30.4623C114.482 30.6582 114.776 30.6582 114.874 30.4623C115.07 30.2665 115.07 29.9727 114.874 29.8747Z" fill="#E6E6E6"/>
<path d="M15.4734 54.9453C14.7879 56.1205 13.8086 56.9039 12.6334 57.5895C11.4582 58.177 10.0872 58.4708 8.6182 58.4708C6.85543 58.4708 5.28852 58.177 4.01541 57.4915C2.7423 56.806 1.76298 55.9246 1.07746 54.6515C0.39194 53.3784 0.0981445 51.9094 0.0981445 50.2446C0.0981445 48.4818 0.489871 46.9149 1.27332 45.5439C1.86091 44.1728 2.93816 43.0956 4.30921 42.41C5.58232 41.6266 7.14923 41.2349 8.912 41.2349C10.4789 41.2349 11.752 41.5287 12.8293 42.1162C13.9065 42.7038 14.7879 43.4873 15.4734 44.6625L12.5355 46.719C12.1437 46.0335 11.6541 45.4459 10.9686 45.1521C10.283 44.8583 9.59752 44.6625 8.81406 44.6625C7.83475 44.6625 6.95336 44.8583 6.26784 45.348C5.48439 45.8377 4.99473 46.4252 4.50507 47.2087C4.01541 47.9921 3.91748 49.0694 3.91748 50.1466C3.91748 51.7136 4.30921 52.8887 5.09266 53.7701C5.87611 54.6515 7.05129 55.0432 8.52027 55.0432C9.30372 55.0432 10.0872 54.8474 10.7727 54.4556C11.4582 54.0639 12.0458 53.4763 12.5355 52.6929L15.4734 54.9453Z" fill="#E6E6E6"/>
<path d="M14.5918 58.1767L21.8387 41.5283H25.0705L32.0236 58.1767H28.1064L26.7353 54.7491H19.8801L18.5091 58.1767H14.5918ZM21.1532 51.6153H25.4622L23.3077 46.229L21.1532 51.6153Z" fill="#E6E6E6"/>
<path d="M47.0076 54.5533L47.889 57.4912C47.4972 57.785 47.1055 57.9809 46.5179 58.0788C45.9303 58.2747 45.4407 58.2747 44.8531 58.2747C43.8738 58.2747 42.8945 58.0788 42.2089 57.6871C41.4255 57.2954 40.8379 56.7078 40.3482 55.8264L38.3896 52.5947C38.1937 52.2029 37.8999 51.9091 37.7041 51.8112C37.5082 51.6153 37.2144 51.6153 36.9206 51.5174V57.9809H33.1992V41.3325H38.6834C41.0338 41.3325 42.6986 41.8222 43.8738 42.7036C45.0489 43.5849 45.6365 44.8581 45.6365 46.5229C45.6365 47.796 45.2448 48.8733 44.4614 49.6567C43.6779 50.4402 42.6986 51.0278 41.4255 51.2236C41.9151 51.5174 42.4048 51.9091 42.7965 52.4967L43.58 53.6719C44.0696 54.4554 44.7552 54.8471 45.5386 54.8471C45.8324 54.8471 46.1262 54.8471 46.42 54.7492C46.7138 54.6512 46.8117 54.7492 47.0076 54.5533ZM38.3896 44.6622H36.9206V48.7753H38.3896C39.5648 48.7753 40.4462 48.5795 40.9358 48.2857C41.4255 47.9919 41.7193 47.4043 41.7193 46.7188C41.7193 46.0332 41.4255 45.4457 40.8379 45.1519C40.2503 44.7601 39.3689 44.6622 38.3896 44.6622Z" fill="#E6E6E6"/>
<path d="M48.6724 58.1767V41.5283H52.4917V54.847H59.7386L59.5428 58.1767H48.6724Z" fill="#E6E6E6"/>
<path d="M66.3979 58.3729C64.3413 58.3729 62.7744 57.9812 61.5993 57.0998C60.4241 56.2184 59.8365 54.9453 59.6406 53.1825L63.2641 52.6929C63.362 53.4763 63.6558 54.1618 64.2434 54.5536C64.831 54.9453 65.5165 55.2391 66.4958 55.2391C67.2793 55.2391 67.9648 55.1412 68.4545 54.8474C68.9441 54.5536 69.14 54.1618 69.14 53.5743C69.14 53.0846 68.9441 52.6929 68.4545 52.3991C67.9648 52.1053 67.1814 51.8115 66.1041 51.6156C64.9289 51.3218 63.9496 51.028 63.1662 50.6363C62.3827 50.2446 61.7951 49.7549 61.4034 49.0694C61.0117 48.3839 60.7179 47.5025 60.7179 46.5232C60.7179 45.4459 61.0117 44.5645 61.5013 43.7811C61.991 42.9976 62.7744 42.3121 63.7538 41.9204C64.7331 41.4307 65.8103 41.2349 67.0834 41.2349C68.7483 41.2349 70.0214 41.6266 71.0986 42.508C72.1759 43.2914 72.7635 44.4666 72.8614 45.9356L69.5317 46.5232C69.4338 45.8377 69.14 45.348 68.6503 45.0542C68.1607 44.6625 67.671 44.5645 66.8876 44.5645C66.1041 44.5645 65.6145 44.7604 65.2227 45.0542C64.831 45.348 64.6351 45.8377 64.6351 46.3273C64.6351 46.817 64.831 47.2087 65.2227 47.5025C65.6145 47.7963 66.3979 48.0901 67.4752 48.3839C68.6503 48.6777 69.6297 48.9715 70.4131 49.3632C71.1966 49.7549 71.8821 50.2446 72.3717 50.8322C72.8614 51.4198 73.0573 52.3011 73.0573 53.2805C73.0573 54.2598 72.7635 55.2391 72.2738 56.0225C71.6862 56.806 71.0007 57.3936 69.9235 57.8832C68.8462 58.177 67.671 58.3729 66.3979 58.3729Z" fill="#E6E6E6"/>
<path d="M87.7469 41.5283L87.2572 44.858H82.2627V58.1767H78.3454V44.858H73.0571V41.5283H87.7469V41.5283Z" fill="#E6E6E6"/>
<path d="M95.6794 58.3727C93.9167 58.3727 92.4477 58.0789 91.1746 57.3934C89.9015 56.7079 88.9222 55.8265 88.2366 54.5534C87.5511 53.2802 87.2573 51.8113 87.2573 50.0485C87.2573 48.2857 87.649 46.8168 88.3346 45.4457C89.0201 44.0747 90.0973 43.0953 91.3705 42.3119C92.6436 41.5284 94.2105 41.1367 95.9732 41.1367C97.5402 41.1367 98.9112 41.5284 100.086 42.214C101.262 42.8995 102.241 43.8788 102.828 45.054C103.514 46.3271 103.808 47.6981 103.808 49.363C103.808 51.1257 103.416 52.6927 102.731 54.0637C102.045 55.4347 101.066 56.4141 99.7926 57.1975C98.5195 57.981 97.2464 58.3727 95.6794 58.3727ZM95.4836 55.043C96.8546 55.043 97.9319 54.5534 98.7153 53.574C99.4988 52.5947 99.9884 51.3216 99.9884 49.5588C99.9884 48.0899 99.5967 46.9147 98.8133 46.0333C98.0298 45.1519 97.0505 44.6623 95.7774 44.6623C94.896 44.6623 94.0146 44.8581 93.3291 45.3478C92.6436 45.8374 92.056 46.425 91.6642 47.2085C91.2725 47.9919 91.0767 48.9713 91.0767 50.0485C91.0767 51.6154 91.4684 52.7906 92.2518 53.672C93.0353 54.5534 94.1125 55.043 95.4836 55.043Z" fill="#E6E6E6"/>
<path d="M117.126 41.5283H120.848V58.1767H117.42L109.977 47.7959V58.1767H106.256V41.5283H109.683L117.126 51.9091V41.5283Z" fill="#E6E6E6"/>
</g>
<defs>
<clipPath id="clip0_156_617">
<rect width="120.848" height="58.2693" fill="white" transform="translate(0 0.103516)"/>
</clipPath>
</defs>
</svg>
