<svg width="150" height="206" viewBox="0 0 150 206" fill="none" xmlns="http://www.w3.org/2000/svg">
<path d="M44.7403 14.0733C42.9441 15.3997 38.6617 16.8477 39.927 18.2576C39.4559 17.5849 37.1196 18.9595 36.8786 17.9776L34.2138 19.7453C36.1216 18.2075 37.9684 16.2834 39.888 14.9063C41.7806 13.4986 43.5967 12.551 44.8332 12.4265L44.7403 14.0733ZM43.7957 12.264C44.8875 11.8879 45.9275 11.4482 47.0327 11.1564C48.2368 10.043 49.5451 9.04027 50.8927 8.02638C48.4028 9.27161 46.0131 10.6589 43.7957 12.264ZM52.3566 10.6295C51.8837 10.659 51.4614 10.7641 51.0582 10.8935C51.4468 10.8775 51.9591 10.7678 52.3566 10.6295ZM60.6579 9.34051C63.8126 7.50121 57.8296 7.9362 62.1652 6.38037C57.933 7.15698 54.8045 7.55867 51.2652 8.5022C52.403 8.55211 52.771 8.3121 54.2695 8.18939C51.8397 9.00012 48.9137 10.8659 46.4294 12.3747C48.053 12.7294 49.282 11.4635 51.0582 10.8935C50.5106 10.914 50.2193 10.7416 50.9025 10.1409C53.897 10.1265 55.118 8.13332 57.9318 8.46828C57.1408 8.76117 56.3826 9.14112 55.6334 9.51541C56.1791 10.4518 60.448 7.20132 60.6579 9.34051ZM64.4038 8.50905C67.0233 8.5046 70.7961 9.25761 71.9076 8.02997C69.3646 6.22757 68.5183 7.62791 67.2676 8.05598C66.6704 7.82452 64.9439 7.64936 64.7049 7.22173C64.2911 7.61873 63.5839 8.14813 64.4038 8.50905ZM64.9146 6.78379C64.6732 6.95847 64.6375 7.09777 64.7049 7.22173C64.8978 7.03776 65.0341 6.88101 64.9146 6.78379ZM71.2489 9.38013C72.3354 10.3681 72.9756 9.78848 74.1368 10.5308C74.8804 10.3332 75.62 10.236 76.4184 10.1089L75.2026 9.7624L75.4706 8.80211C75.1439 8.91175 73.6082 10.1567 71.2489 9.38013ZM74.386 5.07022C76.1029 5.56998 77.355 5.89849 77.4448 4.6852C75.8513 4.04426 74.4581 3.77782 73.9243 3.83969L74.2574 3.70083C74.2574 3.70083 73.4074 3.62617 72.2689 3.662C71.1344 3.64506 69.7219 3.86366 68.586 4.20381C70.3097 3.91047 72.6427 4.52317 74.386 5.07022ZM82.821 7.61535C81.3126 6.62065 79.4552 5.47136 77.7168 4.7858C77.7043 4.77994 77.6897 4.77668 77.6772 4.77082C78.4485 5.44609 79.1528 5.86407 79.9115 6.23127C80.7166 6.67938 81.6443 7.02449 82.821 7.61535ZM77.4575 4.6006C77.4562 4.63405 77.4461 4.65174 77.4448 4.6852C77.5266 4.71726 77.598 4.74087 77.6798 4.77294C77.604 4.70694 77.5338 4.67131 77.4575 4.6006ZM80.8384 14.5054C79.9382 13.5697 79.0775 12.5324 78.0082 11.7354L78.5781 12.605C79.3646 13.1978 80.0946 13.8654 80.8384 14.5054ZM79.2672 8.16297C82.3253 10.3932 78.09 6.10393 81.1008 8.10584C81.5564 8.32564 80.4357 7.56009 79.0972 6.87636C77.6961 6.30137 76.146 5.73452 75.8752 6.04071C76.5945 6.60469 79.5561 6.89594 79.2672 8.16297ZM86.805 23.9595C84.4297 21.3094 86.7483 19.3678 84.1504 19.0964C85.3778 19.8106 85.0837 22.3036 85.9044 23.6235L86.805 23.9595ZM87.7029 33.6215C88.5349 32.9865 89.7137 34.805 89.6629 31.919C89.1239 31.5364 88.9991 30.5283 88.4538 30.7794C88.4552 29.5632 89.0976 29.702 89.2027 28.8465C88.1047 26.934 87.6375 23.7004 86.3259 22.4428C86.7928 23.1207 86.6745 23.3827 86.805 23.9595C87.3661 27.0407 89.0874 31.157 87.7029 33.6215ZM87.6657 16.2469C87.5566 15.2991 88.441 15.2679 86.4259 12.7427C85.8204 12.6858 85.2258 12.642 84.6451 12.6183C85.6377 13.3875 86.2639 14.1561 86.7678 14.8469C87.1386 15.33 87.4186 15.7868 87.6657 16.2469ZM91.9627 19.6066C92.0746 19.607 92.1689 19.6449 92.2968 19.6151C92.058 19.3517 91.9728 19.4032 91.9627 19.6066ZM89.3368 18.4575C89.9837 18.6863 90.4314 19.5946 90.8304 20.4461C91.2184 21.3058 91.4676 22.1345 91.9917 22.2331C92.227 22.0448 92.1254 21.1462 92.05 20.4114C91.9964 20.0743 91.9523 19.7837 91.9627 19.6066C91.0724 19.6027 90.6051 18.782 90.2197 18.11C89.7597 17.36 89.3466 16.9288 88.6852 18.2293C89.134 19.1256 89.642 20.1348 90.4294 21.5009C90.1317 20.4773 89.7035 19.4813 89.3368 18.4575ZM88.6852 18.2293C88.4394 17.7357 88.2055 17.2647 87.9637 16.8089C87.8774 16.6178 87.7682 16.4339 87.6657 16.2469C87.7124 16.6561 87.9402 17.2301 88.6687 18.2548C88.6725 18.2449 88.6788 18.2371 88.6852 18.2293ZM93.4484 41.4063C93.4273 42.0367 93.3802 42.6674 93.3471 43.2966C93.1382 44.4388 93.9321 41.4591 93.4484 41.4063ZM85.3249 62.1139C85.5566 64.6983 86.4762 60.0208 87.057 59.9065C88.6164 61.0507 85.5636 61.9586 86.648 63.437C87.851 64.1227 89.387 58.8419 90.6234 56.8828C90.857 54.9837 90.456 54.9249 89.8566 54.2082C90.6894 53.9062 91.2892 52.0505 92.0875 51.6902C91.7663 47.5826 93.9755 45.7118 93.1267 41.6106C93.2718 41.4482 93.3737 41.3973 93.4484 41.4063C93.4502 41.3086 93.4641 41.212 93.466 41.1142L93.2963 41.3386C93.0252 40.3194 92.9359 39.0079 92.9344 37.6469C92.5754 39.4137 91.8827 40.9434 91.1895 42.2828C90.5681 43.4864 89.9662 44.5547 89.5302 45.5941C89.5334 45.5795 89.5367 45.5648 89.5374 45.5481C89.5143 45.6718 89.4745 45.7473 89.4387 45.839C89.4141 45.901 89.3942 45.9626 89.3723 46.0267C89.3019 46.1291 89.2089 46.1743 89.0781 46.1283C88.1098 44.0882 91.5548 40.6463 90.1382 40.663C88.8523 42.6034 88.7873 46.9362 87.7662 47.4907C88.0076 48.1274 88.726 46.5237 88.8244 48.1793C88.1643 50.6076 87.6888 50.1471 86.727 51.4665C86.9476 51.9698 87.1592 52.4787 87.352 52.9896C86.2319 52.9498 85.8114 54.7443 85.4106 56.939C85.3242 57.3262 85.2355 57.7375 85.1463 58.144C86.5619 55.2171 88.0199 52.1002 88.9231 48.5618C89.4298 53.4809 86.355 57.4228 85.3249 62.1139ZM93.3999 31.3954C93.4313 31.2137 93.4591 31.0205 93.4765 30.8188C93.4526 30.9807 93.4246 31.1954 93.3999 31.3954ZM93.1143 33.9471C93.0077 35.1122 92.932 36.393 92.9344 37.6469C93.1657 36.5142 93.2587 35.2863 93.1211 33.944L93.1143 33.9471ZM92.1141 31.7819L93.0669 30.166C92.3289 28.9567 91.498 27.7925 90.6786 26.6939C92.4616 29.3452 90.6392 32.9468 92.7492 33.2873L92.1109 34.8139L93.1143 33.9471C93.2053 32.955 93.3084 32.0806 93.3973 31.3933C93.1703 32.6373 92.5871 33.2849 92.1141 31.7819ZM94.2385 28.6895C94.0616 26.2447 93.6644 26.4782 93.255 26.6629C93.0293 26.7598 92.8123 26.8249 92.59 26.467C92.869 27.5401 93.1202 28.6209 93.3359 29.7029C93.6587 29.37 93.9407 29.0341 94.2385 28.6895ZM92.5921 26.4644C92.4114 25.769 92.2285 25.0763 92.0053 24.3852C92.2123 25.5681 92.4044 26.1647 92.5921 26.4644ZM85.7082 64.9469C85.9682 66.7168 87.1243 65.042 87.4852 63.1774C86.9418 64.7942 86.072 65.4545 85.7082 64.9469ZM72.5058 82.6296C72.1162 82.6362 71.6443 82.9773 71.3424 84.2338C71.677 84.0614 72.0874 83.4459 72.5058 82.6296ZM79.1123 69.1522L79.1112 69.1642L79.3332 68.9391C79.2448 69.0053 79.1882 69.0801 79.1123 69.1522ZM33.686 23.8352L33.6651 23.8398L32.6123 25.1066C32.9187 24.7991 33.2672 24.3922 33.686 23.8352ZM37.6215 19.2817C36.8356 20.2046 36.1011 20.7463 35.4246 21.1108C34.7859 21.5189 34.1808 21.7214 33.6131 21.8938C32.4819 22.2335 31.5059 22.4621 30.8214 23.8862C34.5765 21.7284 30.6856 24.8592 33.6703 23.844C34.3207 23.0396 34.967 22.2404 35.6005 21.4568C36.2839 20.7181 36.9588 19.9897 37.6215 19.2817ZM66.9029 4.52155C66.8306 4.5361 66.7861 4.54304 66.7185 4.55711C67.0581 4.52705 67.23 4.48563 66.9029 4.52155ZM9.35218 136.955C9.15121 137.78 9.9459 139.449 9.68313 140.902C9.79192 139.665 10.6834 137.382 9.35218 136.955ZM4.55078 137.333L4.78445 137.337C4.69286 137.163 4.59499 136.928 4.49989 136.674C4.49856 136.893 4.51135 137.111 4.55078 137.333ZM4.78186 137.335C4.97851 137.698 5.16937 137.819 5.36532 137.34L4.78186 137.335ZM4.44117 131.947L4.49573 134.637C3.67697 134.636 3.27018 134.637 3.26908 132.979C2.96438 133.395 3.52462 134.844 3.73091 135.673L3.78165 135.053C4.04327 135.4 4.27795 136.088 4.49941 136.669C4.47787 134.278 6.4085 132.335 4.44117 131.947ZM4.7966 130.911L3.50561 128.207C3.55956 129.244 3.77782 131.744 4.7966 130.911ZM5.59501 127.21C5.56417 126.654 5.57699 126.129 5.33071 125.7C4.93069 127.368 4.86478 124.66 4.50468 124.026C4.01756 127.212 5.21454 125.402 5.59501 127.21ZM11.7381 155.93L12.1621 155.749C12.0232 155.601 11.8842 155.592 11.7381 155.93ZM5.35097 118.378L5.40345 118.17C5.35968 117.906 5.31706 117.629 5.30028 117.326L5.35097 118.378ZM83.9498 63.045C83.7652 62.7998 83.5822 62.5473 83.33 63.1276C84.2879 61.9561 84.7421 60.0035 85.1458 58.1393C85.0202 58.3996 84.8946 58.66 84.7711 58.9178C83.7582 61.0372 82.7487 63.0515 81.8854 65.0985C82.6862 64.6927 83.45 64.2051 83.9498 63.045ZM124.36 131.737C126.318 131.587 129.493 128.624 132.083 126.062C131.434 126.531 130.776 126.979 130.098 127.399C129.746 126.521 127.945 127.472 127.429 126.811C128.671 128.133 125.338 129.088 124.11 130.221L124.36 131.737ZM120.584 135.82C122.179 134.576 123.733 133.277 125.229 131.927L122.854 132.855C122.126 133.856 121.364 134.841 120.584 135.82ZM112.82 135.945C111.274 138.412 115.35 136.554 112.923 139.021C115.507 137.226 117.726 136.477 120.174 135.4C119.3 135.435 119.074 135.67 117.979 135.923C119.566 134.927 121.378 133.074 123.075 131.731C121.69 131.385 120.986 132.552 119.721 133.167C120.148 133.126 120.428 133.285 120.036 133.863C117.679 134.043 117.334 136.02 115.157 136.177L116.551 134.851C115.777 133.993 113.72 137.787 112.82 135.945ZM118.766 133.482C119.127 133.426 119.433 133.304 119.719 133.165C119.415 133.194 119.04 133.32 118.766 133.482ZM108.784 139.291C109.294 139.248 110.501 138.746 110.854 139.033C110.955 138.549 111.201 137.865 110.473 137.799C108.657 138.63 105.886 140.009 106.116 141.63C108.496 141.628 108.231 140.299 108.784 139.291ZM110.918 139.495C110.994 139.254 110.953 139.118 110.852 139.036C110.806 139.262 110.787 139.445 110.918 139.495ZM103.362 141.179L102.689 143.066L103.419 142.43L103.965 143.25C104.001 142.955 103.808 141.05 105.641 140.224C104.37 140.036 104.462 140.995 103.362 141.179ZM105.865 147.438C104.495 147.519 103.942 148.204 102.782 149.22C103.727 148.659 104.895 148.03 105.865 147.438ZM106.001 147.355C106.89 146.809 107.588 146.302 107.742 145.927L107.701 146.222C107.701 146.222 109.192 144.66 110.04 143.136C108.515 144.977 104.448 145.525 106.001 147.355ZM106.036 147.413C106.015 147.392 106.02 147.374 105.999 147.353C105.952 147.384 105.909 147.41 105.865 147.438C105.926 147.436 105.969 147.415 106.036 147.413ZM100.07 143.278L97.9939 144.316L100.927 143.306L100.07 143.278ZM103.147 146.301C100.868 147.255 104.836 146.644 102.763 147.68C102.275 148.103 105.771 146.084 105.636 145.422C104.986 145.479 103.899 147.202 103.147 146.301ZM82.9122 150.748C83.6981 151.358 82.8633 152.871 84.8999 152.124C84.9733 151.541 85.6638 151.196 85.2891 150.745C86.1875 150.479 86.3199 151.143 86.9781 151.088C88.0187 149.656 90.4738 149.068 91.272 147.849C90.7895 148.272 90.5816 148.194 90.136 148.327C87.6856 148.914 85.2161 151.333 82.9122 150.748ZM93.8719 146.098C93.3159 147.104 91.2157 146.603 90.2438 147.452L90.1339 148.33C91.9452 145.967 93.7886 148.512 93.8719 146.098ZM94.7727 151.031C94.6216 152.203 92.45 152.283 92.5455 153.237C92.8245 153.568 93.9852 153.261 94.3823 153.351C94.0336 151.621 96.8322 152.086 94.8731 150.478C94.2517 150.754 93.5799 151.118 92.7267 151.779L94.7727 151.031ZM94.3823 153.351C94.4024 153.453 94.3943 153.538 94.4399 153.657C94.58 153.469 94.5285 153.383 94.3823 153.351ZM96.2398 149.929C96.9308 150.008 97.0203 150.858 98.8141 149.831L98.9974 148.371C97.8579 149.256 97.0297 149.626 96.2398 149.929ZM94.844 150.45C94.857 150.461 94.8601 150.468 94.8731 150.478C95.3444 150.27 95.7912 150.103 96.2398 149.929C95.9436 149.895 95.5486 149.988 94.844 150.45ZM85.9188 154.357L87.3655 154.913L89.0054 152.177C87.6813 154.116 84.5455 153.217 85.1549 155.284L83.8796 155.101L84.861 155.783C85.5055 155.617 86.0988 155.509 86.5792 155.46C85.7107 155.461 85.0976 155.074 85.9188 154.357ZM75.7866 156.75C75.7934 156.746 75.7981 156.746 75.8049 156.743C75.743 156.766 75.6997 156.761 75.6441 156.776C75.5688 156.784 75.4996 156.805 75.4268 156.815C75.3276 156.799 75.2481 156.743 75.2084 156.611C75.9509 154.824 79.8752 156.452 79.1627 155.259C77.2678 154.834 74.5385 156.692 73.6726 156.138C73.4289 156.639 74.7709 156.475 73.8438 157.344C72.0439 157.938 72.0644 157.372 70.7358 157.248L70.2397 158.537C69.4959 157.456 67.8827 158.526 66.0936 159.573C68.5464 159.058 71.1135 158.518 73.7106 157.576C71.145 160.357 67.2523 160.059 64.1208 161.917C62.9409 163.568 65.9116 161.605 66.34 162.023C66.705 163.865 64.3393 161.983 64.2737 163.686C64.6634 164.958 68.2907 163.201 70.0654 163.173C71.2115 162.375 71.0064 162.023 71.0403 161.17C71.685 161.656 73.0383 161.208 73.6856 161.696C75.7766 159.461 78.0073 160.491 80.0218 158.207C80.2027 158.277 80.2747 158.352 80.2987 158.424L80.4904 158.321L80.2714 158.25C80.7722 157.588 81.5877 157.047 82.4953 156.616C80.0401 157.108 77.6427 156.564 75.7866 156.75ZM87.0815 155.415C86.9388 155.416 86.7577 155.437 86.5787 155.455C86.7382 155.455 86.9061 155.445 87.0815 155.415ZM80.3013 158.426L79.1284 159.055C78.3598 159.31 80.4388 158.862 80.3013 158.426ZM84.8735 155.789L84.8605 155.779C84.0886 155.979 83.2675 156.256 82.5005 156.62C83.2914 156.465 84.0886 156.234 84.8735 155.789ZM89.6857 154.008L91.0253 153.264C90.1769 153.554 89.811 153.791 89.6857 154.008ZM89.6857 154.008L87.7699 155.073L88.7684 155.761C91.1241 155.063 89.3232 154.65 89.6857 154.008ZM62.9317 163.85C62.2166 165.068 63.7749 164.972 64.9205 164.17C63.7841 164.691 62.9091 164.419 62.9317 163.85ZM44.3836 166.252C44.6933 166.348 45.2356 166.159 45.8786 165.863C45.5974 165.604 45.121 165.553 44.3836 166.252ZM56.5995 161.506L56.8591 161.531C56.7688 161.51 56.693 161.513 56.6063 161.503L56.5995 161.506ZM131.958 122.637L132.639 121.646C132.428 121.879 132.221 122.208 131.942 122.641L131.958 122.637ZM134.443 122.829C131.548 124.418 134.381 122.015 131.958 122.637C131.065 123.861 130.162 125.055 129.256 126.174C131.257 123.249 133.709 125.232 134.443 122.829ZM110.808 142.203C110.837 142.162 110.869 142.144 110.9 142.105C110.714 142.255 110.637 142.349 110.808 142.203ZM86.1087 84.4949C85.4349 84.5378 84.5581 85.7581 83.4169 85.9298C84.3587 85.6691 86.3017 85.8434 86.1087 84.4949ZM84.1308 80.3597C84.2307 80.2209 84.3712 80.059 84.5357 79.8993C84.3637 79.9622 84.203 80.0429 84.0468 80.1446L84.1308 80.3597ZM84.3436 80.9042L84.1308 80.3597C83.9228 80.6523 83.9064 80.8634 84.3436 80.9042ZM88.2179 78.6318L86.1307 79.3717C85.8522 78.6055 85.7149 78.2174 87.034 77.7847C86.6037 77.6027 85.6313 78.5163 85.0496 78.9233L85.5566 78.8095C85.3698 79.1451 84.911 79.5444 84.5383 79.9014C86.4297 79.2482 88.5406 80.5952 88.2179 78.6318ZM89.1353 78.7138L90.9198 76.9246C90.1024 77.1916 88.1612 77.9166 89.1353 78.7138ZM92.267 78.7378C92.6906 78.5991 93.1024 78.507 93.3739 78.184C91.9679 78.1188 94.0675 77.5228 94.4987 77.1097C91.8496 77.1505 93.5827 78.0389 92.267 78.7378ZM74.4217 93.2153L74.7776 93.4834C74.7884 93.3109 74.7168 93.1921 74.4217 93.2153ZM99.1471 77.1423L99.3215 77.1721C99.5234 77.099 99.7352 77.0297 99.9683 76.982L99.1471 77.1423ZM137.271 131.144C136.4 130.872 137.45 129.598 138.481 128.093C139.542 126.535 140.514 124.715 139.763 123.914C138.787 124.768 137.185 126.201 137.123 127.13C137.662 127.413 138.244 126.692 138.826 125.978C137.575 129.445 132.864 131.515 132.502 134.165C133.264 133.797 134.043 133.455 134.8 133.044C132.766 135.183 129.96 134.526 129.97 136.04C130.133 135.055 130.262 134.033 130.377 133.048C128.876 135.624 125.836 137.492 124.111 139.494C124.717 140.579 127.201 137.443 127.173 137.722L126.643 139.147C122.882 140.739 125.265 139.217 120.828 141.056L121.202 141.784C119.222 141.528 116.745 145.589 117.063 142.93L118.411 142.763L117.841 141.958L113.494 145.049C113.608 144.167 111.47 145.521 111.621 144.349L110.327 146.002C108.913 145.162 112.677 142.908 112.368 141.871C112.011 141.335 111.252 141.822 110.9 142.105C112.459 140.132 114.597 141.743 116.66 140.651L117.242 139.316L117.782 140.412C118.521 139.744 118.838 138.612 118.89 138.028C121.735 138.282 122.841 135.275 125.902 133.545C123.892 135.828 128.125 133.391 127.907 133.908C129.316 132.931 130.966 128.671 132.968 128.746C134.089 128.472 132.073 130.811 133.968 129.362C134.965 128.149 135.208 126.948 134.108 127.266C136.159 124.614 138.836 121.441 140.47 118.061C140.586 118.454 140.668 118.836 140.766 119.23C142.508 117.398 142.378 114.715 141.889 113.29C142.304 113.088 142.13 112.834 142.476 113.332C143.607 112.102 143.422 110.977 143.162 109.694C142.847 108.38 142.478 106.919 142.695 104.514C141.561 104.778 141.349 106.794 141.608 108.343L140.391 107.758C139.764 111.599 138.364 115.717 137.4 118.895L137.258 117.144C135.851 117.923 135.99 118.516 136.061 119.118C136.143 119.702 136.229 120.338 134.665 120.796C133.95 122.613 136.008 120.058 135.63 121.551C134.527 122.418 134.03 120.007 132.637 121.649C134.9 118.323 136.796 114.445 137.857 110.336C138.941 106.241 138.981 101.871 137.757 98.1244C137.467 98.0566 137.553 98.4594 137.537 98.8776C136.93 98.3449 136.479 96.6397 135.369 94.5666C134.331 92.4742 132.593 90.0277 130.242 88.1224C127.922 86.1948 125.116 84.8477 122.875 84.2494C120.616 83.6577 118.96 83.7822 118.653 84.5681C118.327 84.0137 119.749 83.6822 117.995 83.4624C117.796 83.6803 117.311 83.9418 117.647 84.4832C115.615 83.209 112.921 83.114 110.203 83.2928C107.454 83.4985 104.714 83.9746 101.899 84.0182C102.132 84.5534 101.017 85.1008 101.092 85.5025C98.9588 84.6123 96.2365 86.8165 94.3834 86.7067L95.1262 87.1517L92.5395 88.0332L90.0095 89.0731C89.9553 89.3571 90.6436 89.0843 91.0799 88.9991C90.1037 89.7369 89.5707 89.1562 89.2312 88.677C88.6536 89.4026 88.1358 90.2243 87.6153 90.9963C83.8819 91.3934 80.4965 93.7917 77.3891 96.5114C74.2342 99.2312 71.4577 102.393 68.0882 104.761C68.0422 106.424 67.6623 107.453 66.4778 109.083L67.3763 108.563C66.7719 110.721 66.8663 108.277 66.0893 109.889C65.8792 111.229 67.1736 111.251 67.7079 109.662C68.6359 109.174 68.5336 109.893 68.2913 110.594C64.1967 115.173 60.5762 119.526 56.5315 123.339C57.2478 122.294 57.9496 121.294 58.5849 120.111C59.313 118.972 59.9315 117.624 60.6006 115.911C59.3834 115.227 61.0874 114.486 59.9927 113.487C59.1753 114.867 60.2602 112.893 61.8521 110.386C60.4016 111.139 59.4593 112.694 58.5739 114.317C57.362 116.353 56.24 118.5 54.1614 118.651C53.56 120.026 56.448 117.953 54.9304 120.278C54.1649 121.447 53.4096 120.927 53.2609 120.707C53.0513 121.076 52.8421 121.449 52.6287 121.828C51.0448 121.048 50.1366 119.687 50.0767 117.571C50.037 115.466 50.8493 112.597 52.5997 108.664C53.6325 108.271 50.5638 111.855 52.9214 110.804C56.1124 108.645 59.2181 104.819 62.0405 100.619C64.887 96.4226 67.5664 91.9431 70.3676 88.3958C72.2522 86.701 72.5056 86.1086 73.8926 84.3887C73.7425 84.2709 73.5291 84.1619 73.2938 84.1646C74.4211 82.0001 75.7221 78.2806 77.1277 76.2304C77.1741 75.4999 76.543 74.7055 76.2382 76.0027C76.8894 72.3284 80.0863 70.6443 80.0764 68.4132C78.9536 69.9252 79.8447 66.4547 78.7235 68.3306C79.3926 66.1298 80.6809 65.6979 81.8771 65.0874C81.1227 66.8734 80.4773 68.6791 80.0756 70.6097C78.6847 71.8517 78.8212 73.275 79.2903 74.3691C79.495 74.0911 79.5686 74.0431 79.3869 74.5686C79.4172 74.6321 79.4459 74.703 79.4783 74.7639C80.4374 73.5114 82.8226 69.6903 80.9795 68.9583L83.0162 66.8434C83.2462 65.8608 85.0826 66.4578 85.5251 66.1317C84.7731 67.8721 85.8423 70.5252 87.352 68.2835C85.9544 73.1504 83.9443 65.4751 83.0081 69.8283L84.1289 70.8961C83.7125 69.8751 81.8184 73.2413 81.7378 74.7297L82.205 74.2725C79.83 79.656 77.0514 85.9067 73.8301 92.1337C73.0561 93.6361 72.2538 95.1414 71.4355 96.6292C73.3276 94.9147 74.7494 93.7195 74.774 93.4718L75.5054 94.037C76.3529 92.8102 77.1447 91.6677 77.8953 90.5865C78.6119 89.4993 79.3373 88.4969 80.3298 87.617L81.36 88.2657C79.5417 88.8662 79.4511 89.7464 78.1125 91.1735C80.7639 89.2049 81.6894 89.6216 83.7443 88.195C83.0401 87.0131 81.4928 88.5853 83.997 86.4581C85.0761 86.5854 83.8715 88.8554 86.2641 87.3798C89.4664 86.2828 88.0785 84.7689 90.8246 83.4688L88.7464 83.7628C89.74 83.2421 91.6188 82.2333 92.8913 82.6216C91.6311 82.8864 88.9299 84.8101 89.5665 86.075C90.5893 85.2586 93.379 84.8489 94.381 84.4558L94.064 85.5877C95.4469 86.0789 95.6661 84.5263 97.3339 84.9645C98.5337 84.0633 96.1336 83.8406 96.7801 83.2532C97.1675 83.5038 99.9126 83.239 100.718 82.483C99.5703 80.5732 97.7057 83.8555 95.4545 82.4159L98.1146 82.0646C99.226 79.6757 94.0043 83.1952 94.3892 81.4495C95.8044 78.8891 98.9433 82.1866 100.176 79.2618C98.8077 78.9381 94.8783 80.0691 95.1701 79.2016C96.7789 79.5744 97.3751 77.8237 99.3278 77.1643L101.914 77.5987C102.806 76.7624 101.996 76.9192 101.114 76.6717C102.965 76.8485 105.452 76.4602 108.098 76.2269C110.753 76.0523 113.66 76.0493 116.188 77.0275C119.289 77.0784 116.664 76.172 118.167 75.63C119.663 77.0329 122.617 76.5801 124.373 77.1163C124.852 77.329 126.156 76.448 125.8 75.8254C124.216 75.6546 122.654 75.4793 121.116 75.4751C121.462 74.9019 120.991 73.6509 119.307 73.5666C119.694 74.8357 118.159 74.2078 116.401 73.7265C114.645 73.2332 112.648 72.9072 112.475 74.2647L112.56 73.0424C110.601 73.2742 108.686 73.6323 106.806 74.0916L106.99 74.2417C106.96 73.7855 102.239 75.576 99.2721 75.785C99.6572 75.5028 101.125 75.2167 102.098 74.917C103.091 74.6415 103.617 74.3448 101.957 73.9344C104.205 72.8163 108.584 73.3716 112.926 72.9692L112.073 72.1285C114.415 71.5314 117.207 71.8401 119.993 72.4587C122.796 73.1517 125.581 74.0846 128.233 74.9525L126.338 75.487C128.034 76.4744 129.853 78.2058 131.886 78.164C129.756 77.2069 131.095 77.1529 131.707 76.8831C134.948 77.7429 138.86 81.035 142.33 84.451C142.33 84.451 141.988 84.436 142.001 84.6965C143.215 85.8618 144.51 87.0544 145.528 88.4611C146.631 90.6586 146.291 91.7762 146.178 93.3632C146.623 94.1099 147.246 96.1663 147.632 95.1987C147.551 94.7311 147.46 94.2597 147.301 93.9881C149.273 96.0941 147.539 95.7793 148.906 98.7303C147.471 96.5264 147.595 99.7309 146.462 99.5687C147.361 102.925 148.371 99.6894 148.905 100.02C148.845 102.273 148.469 103.499 148.097 104.677C147.745 105.862 147.381 106.999 146.971 108.987C147.621 109.344 147.789 106.169 148.522 105.847C148.251 107.038 148.149 108.436 148.354 108.689C148.637 107.858 148.895 107.001 149.156 106.139C147.982 110.561 146.805 114.382 145.348 118.846L145.803 118.647C145.374 119.519 144.982 120.414 144.492 121.249C144.298 120.75 144.111 120.27 143.894 119.783C143.467 121.3 141.732 122.158 142.113 123.34L142.485 122.909C142.252 123.513 142.038 124.142 141.776 124.74C141.823 123.972 141.816 123.189 141.818 122.44C140.988 123.327 140.618 124.757 140.054 126.399C139.445 128.054 138.696 129.839 137.271 131.144ZM70.0605 99.8828C70.0987 99.8146 70.127 99.7427 70.158 99.6729C70.038 99.8256 69.8085 100.07 69.5005 100.385C69.6786 100.219 69.8661 100.053 70.0605 99.8828ZM60.4409 161.071C59.0531 161.578 57.7307 162.211 56.5189 163.111C55.0137 162.913 54.4196 163.919 54.2248 164.943C54.4876 164.906 54.5585 164.925 54.1965 165.131C54.1866 165.196 54.1745 165.264 54.1666 165.327C55.3949 165.192 58.7396 164.508 57.9195 162.753L60.2701 162.957C60.9017 162.526 61.7804 164.273 62.2227 164.408C60.8694 164.856 60.3276 167.277 62.3348 167.033C59.1476 168.928 61.5031 162.821 58.8159 164.765L59.0351 166.229C59.2445 165.278 56.4228 166.002 55.6946 166.908L56.2134 166.954C48.1514 170.368 38.0856 176.264 29.7151 181.101C26.0115 179.096 23.9819 185.434 20.7052 183.95C19.9771 184.855 22.6149 184.356 21.0002 185.666C20.1894 186.323 19.6919 185.555 19.614 185.306C19.3821 185.527 19.1481 185.751 18.9098 185.98C18.7007 185.728 18.5356 185.464 18.3727 185.198C16.8217 192.931 14.1113 200.01 10.2619 205.518C11.0266 203.762 11.7857 202.045 12.4815 200.082C13.1189 198.106 13.5945 195.851 13.9367 193.108C12.5559 192.916 14.0043 190.866 12.637 190.25C12.0934 193.002 13.1894 187.816 13.5879 182.442C13.8401 179.587 13.945 176.711 13.9175 174.958C13.8124 174.838 13.7 174.716 13.5948 174.596C13.5348 175.264 13.471 175.941 13.3999 176.617C13.1473 179.399 12.7611 182.154 12.4482 184.161C12.1885 186.177 11.9921 187.441 12.1219 187.245C11.1448 188.09 12.1564 180.457 12.4636 172.475C12.8273 164.488 12.5094 156.165 12.1552 155.752L13.0336 155.383C12.03 151.35 10.6899 148.818 9.92356 145.475L10.9615 144.666C10.7004 147.156 11.4682 147.798 12.0052 150.32C11.6513 145.94 12.2972 145.115 11.9141 141.772C10.5364 141.959 11.3834 144.673 10.3918 140.503C10.9138 139.257 12.5763 141.988 12.0931 138.227C12.2058 133.64 10.206 134.675 9.84013 130.713L9.48935 133.419C9.33754 131.961 8.86435 129.249 9.51929 127.793C9.53337 129.462 10.5678 133.632 11.9435 133.426C11.5368 131.757 11.8206 128.004 11.6589 126.543L12.6845 127.378C13.4939 125.71 12.0589 124.874 12.7663 122.791C12.0952 120.911 11.4428 124.04 10.979 122.998C11.2884 122.581 11.5654 118.83 10.8634 117.577C8.86099 118.61 11.7454 121.956 9.91253 124.456L10.0509 120.909C7.89458 118.817 10.4339 126.547 8.74448 125.504C6.48775 122.99 10.3964 119.869 7.59464 117.562C7.17579 119.233 7.46612 124.455 6.69338 123.835C7.33686 121.941 5.80956 120.715 5.39922 118.175L6.16887 115.029C5.45551 113.758 5.50408 114.812 5.1475 115.86C6.06102 111.285 4.27699 103.587 5.77723 97.0293C5.49573 93.1698 4.88469 96.5401 4.17032 94.7715C5.43621 92.7285 4.53796 89.2131 4.64563 87.0604C4.77595 86.4283 3.64033 85.1931 3.1057 85.781C3.21349 87.6213 3.45315 89.4481 3.63532 91.2712C2.99463 90.9871 1.90056 91.7585 1.97851 93.7256C4.3688 92.3906 0.463735 101.441 3.2281 101.805L2.00146 101.747C2.34785 104.058 2.64746 106.4 3.05188 108.65L3.20634 108.439C2.79436 108.436 4.30687 114.182 4.01505 117.951C3.55709 116.896 3.66868 110.581 2.53763 114.357C1.67848 111.594 2.53333 106.54 1.91416 101.314L1.11377 102.35C-0.171761 96.8444 1.42645 89.525 1.64636 83.3844L2.65195 85.2778C3.22111 83.1468 4.30244 80.4873 3.59356 78.3779C3.38106 80.9935 2.88314 79.5954 2.44678 79.0761C2.16424 75.4619 3.47823 70.3371 3.96173 65.4211C3.96173 65.4211 4.15699 65.7009 4.35771 65.5233C4.47067 63.7936 4.52047 62.0514 4.69629 60.3081C5.46085 57.9477 6.3041 57.283 7.38985 56.0128C7.41439 55.0917 8.12792 52.953 7.2342 53.5896C7.03275 54.0386 6.8266 54.4881 6.80503 54.8115C6.37925 51.9354 7.68345 53.1438 7.92815 49.7515C8.17038 52.5084 9.5689 49.4381 10.4828 50.0654C11.2723 46.3008 8.7915 49.1204 8.48756 48.5233C10.7535 44.2813 11.6175 44.0048 13.8011 39.795C13.3317 39.2791 11.9948 42.6715 11.2017 42.7814C11.8649 41.5902 12.4974 40.1238 12.3638 39.7948L10.6915 42.284C12.0763 40.1479 13.2494 38.0121 14.4503 35.7996C15.7852 33.6401 16.7555 31.2442 18.1499 28.7835L17.6275 28.9798L19.5701 26.0631L19.8943 27.7861C20.2744 26.9214 20.9616 26.2203 21.5208 25.5704C22.1357 24.9529 22.6174 24.3824 22.5348 23.6936L22.0381 24.1872L23.1821 22.0924L22.6547 24.7236C23.7696 23.7145 24.449 22.0315 25.2961 20.1052C26.2658 18.2829 27.4117 16.207 29.2013 14.491C31.0822 14.8954 23.6993 21.0328 25.1759 22.9945C26.3484 21.92 28.436 20.2092 28.6903 19.1385C28.1408 18.8855 27.3479 19.7163 26.5577 20.5493C27.6077 18.676 29.4498 16.7523 31.3157 15.1761C33.2133 13.6085 34.8249 12.1059 35.3425 10.5156C34.3207 11.0177 33.4183 11.5695 32.4386 12.1102C33.7644 10.7678 35.2975 10.1466 36.5843 9.70051C37.8223 9.21901 38.7554 8.94249 38.9635 8.07162C38.4875 9.20792 38.0617 10.3462 37.703 11.5133C40.15 8.36402 44.5844 6.07703 47.6551 3.97507C47.2101 2.74521 42.8469 6.25993 43.0137 5.95966L44.1815 4.37644C46.9298 3.37601 47.4363 3.51206 48.0132 3.42911C48.5991 3.38807 49.3266 3.24209 52.7407 2.51605L52.566 1.71774C53.8747 1.97144 55.8701 1.14815 57.4335 0.707048C58.9722 0.211364 59.9905 0.116474 58.9413 1.32582C58.2719 1.22551 57.6293 1.22476 56.9626 1.17414L57.3123 2.10203C59.8855 1.34324 62.6056 0.881099 65.4171 0.683253C64.6003 1.37381 68.6259 1.34416 67.4757 2.26403C68.4967 2.03323 69.5527 1.93448 70.6315 1.78102C71.2026 2.56961 69.7218 2.77142 68.1325 2.93676C66.5351 3.18621 64.8031 3.4685 64.6632 4.00637C64.7672 4.62631 66.0681 4.61904 66.7206 4.55451C63.4032 5.41104 61.6706 3.18051 58.2114 3.67559L56.7446 4.87303L56.5703 3.66063C55.2176 4.16103 54.3047 5.33022 53.9778 5.90154C50.3194 5.2891 47.6962 8.43742 43.4027 10.5196C46.5889 7.87277 40.5418 10.8153 40.9851 10.2654C40.0013 10.8588 38.6864 12.4476 37.4 13.8955C36.2102 15.4048 34.972 16.7192 33.7614 16.7957C32.3879 17.2316 35.2295 14.3345 32.7056 16.1996C31.2306 17.6192 30.8655 19.1867 32.1261 18.6244C29.2978 22.046 25.6277 25.8228 23.0769 29.9322L23.0388 28.5154C21.9222 29.6008 21.1878 30.9326 20.7295 32.1955C20.3014 33.4745 20.2379 34.735 20.2371 35.6322C19.7512 35.8367 19.8509 36.1597 19.6472 35.519C16.597 38.2852 18.8245 40.6077 16.2057 46.1424C17.3518 46.2033 18.4988 43.7442 18.8309 41.7612L19.8086 42.7556C21.8802 37.941 24.7562 32.8487 26.5552 28.8569C26.4215 29.5726 26.353 30.3197 26.2554 31.0388C27.9463 29.985 28.0303 29.272 28.1024 28.5364C28.1708 27.8108 28.2714 27.0984 30.1008 26.3731C31.3114 24.0692 28.4435 27.4068 29.2012 25.5373C30.6338 24.3767 30.5962 27.2599 32.6144 25.104C29.2741 29.5204 25.9279 34.3896 23.3499 39.7892C20.7644 45.161 18.5571 50.8105 17.1165 56.4408C17.2851 56.7163 17.5466 56.1564 17.809 55.606C17.9851 57.7177 15.0131 66.2369 13.4302 74.8897C11.7458 83.503 11.3266 91.9937 12.9956 92.5364C12.481 93.1103 11.9879 91.2025 11.9668 93.689C12.1975 93.9199 12.5105 94.5589 13.0158 93.986C11.0395 100.264 13.293 108.642 12.5399 116.313C13.1021 116.11 13.5084 117.775 13.9156 117.778C12.7404 120.473 14.4507 124.853 13.8511 127.36L14.46 126.522L14.9486 134.258C15.2062 134.472 15.1508 133.421 15.2005 132.793C15.6125 134.466 14.8963 134.885 14.3388 135.087L15.9645 138.456C15.0557 143.587 15.6251 149.257 16.1426 155.186C16.6048 161.109 17.0738 167.331 15.8161 173.214C16.8502 175.083 17.0803 176.678 16.9028 179.728L17.406 178.277C18.0089 181.487 16.8227 178.389 16.9881 181.071C17.1337 181.724 17.3782 181.997 17.6208 181.996C17.6811 181.237 17.8913 180.433 18.2897 179.562C18.2789 179.48 18.2811 179.408 18.2698 179.321C18.4865 178.742 18.6591 178.546 18.801 178.584C19.4749 177.427 20.4229 176.183 21.7416 174.817C22.6518 174.945 19.3225 176.591 21.4589 176.771C27.6045 176.089 35.1268 170.22 42.0006 168.633C44.0163 168.564 44.4572 168.362 46.1306 168.019C46.0741 167.839 45.964 167.624 45.8011 167.475C47.4908 166.687 50.0179 165.015 51.9225 164.653C52.2856 164.202 52.2221 163.235 51.4203 163.886C53.5772 161.899 56.5168 163.113 57.6106 161.759C56.1227 161.869 58.4405 160.384 56.7666 160.722C58.3091 159.846 59.3605 160.537 60.4409 161.071ZM13.9795 165.978C14.004 166.24 14.0143 166.688 14.0099 167.272C14.0262 166.944 14.0438 166.604 14.0608 166.26C14.0365 166.163 14.0054 166.068 13.9795 165.978ZM13.9169 174.72C13.8925 173.716 13.8204 173.152 13.7037 173.29C13.685 173.526 13.6688 173.763 13.6459 174.003C13.7416 174.241 13.8306 174.482 13.9169 174.72ZM62.7918 161.418C62.7998 161.217 62.7993 161.027 62.6465 160.976C63.7531 160.884 64.9601 160.239 66.1004 159.57C64.1205 159.987 62.2209 160.423 60.4435 161.074C61.1604 161.428 61.8916 161.713 62.7918 161.418Z" fill="#494949"/>
</svg>
