<svg width="218" height="33" viewBox="0 0 218 33" fill="none" xmlns="http://www.w3.org/2000/svg">
<path d="M53.0145 27.7464C53.0352 28.2699 52.8902 28.7867 52.5999 29.2243C52.3096 29.6619 51.8886 29.9984 51.3958 30.1865C50.8013 30.4082 50.1698 30.5159 49.5348 30.5037C49.1107 30.5042 48.6875 30.4622 48.2719 30.3783C47.882 30.2953 47.5038 30.1656 47.1455 29.9921C46.7941 29.8219 46.4665 29.6069 46.1712 29.3527L46.0552 29.2632L47.0321 28.0789L47.1455 28.1812C47.4691 28.4558 47.839 28.6715 48.2383 28.8181C48.6528 28.961 49.0883 29.0345 49.5271 29.0355C50.0328 29.067 50.5364 28.9476 50.9731 28.6928C51.1262 28.5979 51.2516 28.4649 51.3366 28.3069C51.4217 28.1489 51.4634 27.9715 51.4577 27.7924C51.4725 27.5545 51.3981 27.3194 51.2489 27.1326C51.0916 26.9655 50.895 26.8398 50.6767 26.7668C50.3546 26.6583 50.0233 26.5787 49.6869 26.5289C49.6534 26.5289 49.6199 26.5289 49.5838 26.5059H49.5168C49.0057 26.4317 48.5021 26.3136 48.0115 26.1529C47.5975 26.0079 47.2348 25.7467 46.9676 25.401C46.6577 24.941 46.5083 24.393 46.5423 23.8407C46.5233 23.3127 46.6585 22.7904 46.9315 22.3368C47.2141 21.9053 47.6235 21.5704 48.1043 21.3776C48.6773 21.1497 49.2916 21.0417 49.9086 21.0605C50.2404 21.0598 50.5713 21.0941 50.8958 21.1628C51.2242 21.2401 51.5438 21.3507 51.8495 21.4927C52.1781 21.6357 52.4893 21.815 52.7774 22.0273L52.8934 22.1091L51.9964 23.3394L51.883 23.2576C51.5784 23.0282 51.2414 22.8446 50.8829 22.7128C50.5726 22.5914 50.2421 22.529 49.9086 22.5286C49.4316 22.4982 48.957 22.6182 48.5528 22.8713C48.4037 22.9725 48.2829 23.1096 48.2018 23.2698C48.1206 23.4299 48.0818 23.6079 48.0888 23.787C48.0783 23.9033 48.0933 24.0205 48.1329 24.1305C48.1726 24.2405 48.2358 24.3406 48.3183 24.4239C48.4835 24.5896 48.6883 24.7111 48.9137 24.7769C49.2677 24.8853 49.6284 24.9708 49.9936 25.0326L50.0168 25.181L50.04 25.0429C50.0586 25.0379 50.0782 25.0379 50.0968 25.0429H50.1328C50.1677 25.0482 50.2021 25.0559 50.2359 25.0659C50.7101 25.1576 51.175 25.2911 51.6252 25.4649C52.0206 25.632 52.3621 25.9036 52.6124 26.2501C52.9026 26.6941 53.0434 27.218 53.0145 27.7464V27.7464Z" fill="#84786C"/>
<path d="M61.2473 21.1372V22.6207H58.6878V30.4141H57.1361V22.6207H54.5767V21.1372H61.2473Z" fill="#84786C"/>
<path d="M69.7685 21.1372V27.02C69.7856 27.6636 69.6561 28.3027 69.3896 28.8897C69.14 29.3986 68.7398 29.8198 68.2426 30.0969C67.6862 30.3838 67.065 30.5247 66.4383 30.5062C65.8199 30.5233 65.2075 30.3824 64.6598 30.0969C64.1583 29.8243 63.7561 29.4019 63.5102 28.8897C63.2403 28.3034 63.1064 27.6645 63.1184 27.02V21.1372H64.6804V27.0635C64.6437 27.5796 64.809 28.0898 65.1418 28.4881C65.3091 28.6559 65.5107 28.7864 65.733 28.8706C65.9552 28.9549 66.1931 28.991 66.4306 28.9767C66.6729 28.9933 66.916 28.9583 67.1437 28.8741C67.3713 28.7898 67.5781 28.6582 67.7502 28.4881C68.0778 28.087 68.2423 27.5788 68.2116 27.0635V21.1372H69.7685Z" fill="#84786C"/>
<path d="M78.9445 22.6872C78.6601 22.1838 78.2275 21.7786 77.7047 21.526C77.1023 21.2571 76.4473 21.1243 75.787 21.1372H72.7661V30.4141H75.787C76.4529 30.4302 77.1135 30.2936 77.7176 30.0151C78.2418 29.7694 78.6754 29.3669 78.9573 28.8641C79.2542 28.307 79.4007 27.6832 79.3826 27.0533V24.4955C79.3977 23.8652 79.2467 23.2418 78.9445 22.6872ZM77.7846 24.4546V27.0967C77.7977 27.3462 77.7586 27.5956 77.6699 27.8293C77.5812 28.063 77.4447 28.276 77.2691 28.4549C76.8589 28.7864 76.3381 28.9526 75.8102 28.9204H74.3178V22.6181H75.8102C76.3408 22.5858 76.8634 22.7581 77.2691 23.099C77.4454 23.2768 77.5824 23.4893 77.6712 23.7227C77.76 23.9562 77.7986 24.2055 77.7846 24.4546Z" fill="#84786C"/>
<path d="M83.8598 21.1372H82.2979V30.4141H83.8598V21.1372Z" fill="#84786C"/>
<path d="M93.1598 22.7C92.8942 22.1927 92.4882 21.7712 91.9896 21.485C91.4519 21.2013 90.8523 21.0529 90.2433 21.0529C89.6343 21.0529 89.0347 21.2013 88.497 21.485C87.9977 21.7726 87.5916 22.1959 87.3268 22.7051C87.0428 23.2591 86.9012 23.8741 86.9144 24.4955V27.0532C86.9024 27.6745 87.044 28.2892 87.3268 28.8437C87.5916 29.3528 87.9977 29.7761 88.497 30.0637C89.0347 30.3474 89.6343 30.4958 90.2433 30.4958C90.8523 30.4958 91.4519 30.3474 91.9896 30.0637C92.489 29.7761 92.895 29.3528 93.1598 28.8437C93.4422 28.289 93.5846 27.6746 93.5748 27.0532V24.4955C93.5866 23.8723 93.4441 23.2558 93.1598 22.7V22.7ZM91.1622 28.749C90.8793 28.8984 90.5638 28.9765 90.2433 28.9765C89.9229 28.9765 89.6073 28.8984 89.3244 28.749C89.0663 28.5895 88.859 28.3607 88.7264 28.0891C88.5743 27.777 88.5 27.4331 88.5099 27.0865V24.4546C88.5012 24.1081 88.5754 23.7645 88.7264 23.4519C88.8593 23.1833 89.0668 22.9579 89.3244 22.8023C89.6073 22.6529 89.9229 22.5748 90.2433 22.5748C90.5638 22.5748 90.8793 22.6529 91.1622 22.8023C91.4227 22.9567 91.633 23.1822 91.7679 23.4519C91.9189 23.7645 91.9931 24.1081 91.9844 24.4546V27.0865C91.9956 27.4332 91.9213 27.7774 91.7679 28.0891C91.6364 28.3638 91.4255 28.5935 91.1622 28.749V28.749Z" fill="#84786C"/>
<path d="M107.733 26.7565C107.589 26.4349 107.368 26.153 107.089 25.9355C106.93 25.8193 106.757 25.7238 106.573 25.6516C106.741 25.5863 106.899 25.5003 107.045 25.3958C107.302 25.1963 107.507 24.9384 107.643 24.6438C107.772 24.3529 107.838 24.0383 107.836 23.7205C107.848 23.2469 107.742 22.7777 107.527 22.3547C107.309 21.9649 106.977 21.6508 106.573 21.4543C106.096 21.2349 105.574 21.1289 105.048 21.1448H101.336V30.4218H105.171C105.679 30.4271 106.182 30.3177 106.641 30.1021C107.054 29.8976 107.398 29.5764 107.628 29.1787C107.865 28.7628 107.985 28.2908 107.973 27.8129C107.973 27.4475 107.891 27.0867 107.733 26.7565V26.7565ZM102.888 26.3678H104.999C105.276 26.3574 105.551 26.4126 105.803 26.5289C105.997 26.6238 106.155 26.7792 106.251 26.9714C106.353 27.2053 106.4 27.4587 106.39 27.7131C106.402 27.8848 106.372 28.0567 106.304 28.2149C106.236 28.3731 106.132 28.5131 105.999 28.6237C105.741 28.8411 105.287 28.9562 104.689 28.9562H102.885L102.888 26.3678ZM106.274 23.787C106.287 23.945 106.266 24.1037 106.212 24.2531C106.159 24.4024 106.075 24.539 105.965 24.6541C105.689 24.8639 105.345 24.965 104.999 24.938H102.888V22.5976H104.829C105.219 22.5637 105.609 22.6679 105.929 22.8918C106.05 23.0061 106.144 23.1458 106.204 23.3007C106.263 23.4556 106.288 23.6217 106.274 23.787V23.787Z" fill="#84786C"/>
<path d="M116.724 21.1372L113.875 26.6542V30.4141H112.313V26.6542L109.468 21.1372H111.2L113.094 25.0122L114.979 21.1372H116.724Z" fill="#84786C"/>
<path d="M130.619 30.4141H128.725L128.678 30.3451L126.152 26.1299L124.83 27.7131V30.4141H123.281V21.1372H124.83V25.5697L128.346 21.1372H130.286L127.242 24.8075L130.619 30.4141Z" fill="#84786C"/>
<path d="M136.545 21.1372H135.256L131.81 30.4141H133.498L134.176 28.4421H137.622L138.311 30.4141H139.986L136.545 21.1372ZM135.901 23.4391L137.133 26.9484H134.707L135.901 23.4391Z" fill="#84786C"/>
<path d="M147.154 26.4138C147.264 26.3711 147.372 26.3215 147.476 26.2654C147.897 26.046 148.244 25.7089 148.474 25.2961C148.71 24.8593 148.829 24.3695 148.819 23.874C148.829 23.3735 148.71 22.8788 148.474 22.4365C148.246 22.0297 147.909 21.6939 147.499 21.4671C147.05 21.2336 146.548 21.1166 146.04 21.1269H142.288V30.4141H143.85V26.6005H145.502L147.443 30.4141H149.28L147.154 26.4138ZM143.86 22.6181H146.087C146.285 22.6112 146.48 22.6629 146.649 22.7665C146.818 22.8677 146.951 23.02 147.028 23.2013C147.125 23.412 147.173 23.6421 147.167 23.874C147.172 24.1049 147.124 24.334 147.028 24.5441C146.945 24.7214 146.814 24.872 146.649 24.9789C146.477 25.0751 146.284 25.1262 146.087 25.1273H143.86V22.6181Z" fill="#84786C"/>
<path d="M153.458 21.1372H151.896V30.4141H153.458V21.1372Z" fill="#84786C"/>
<path d="M164.689 21.1372V30.4141H163.163V24.7615L161.232 29.1608H160.165L158.224 24.8638V30.4141H156.696V21.1372H158.131L160.694 26.8588L163.266 21.1372H164.689Z" fill="#84786C"/>
<path d="M174.463 21.1372V27.02C174.476 27.6646 174.342 28.3038 174.071 28.8897C173.825 29.4012 173.424 29.8234 172.924 30.0969C172.368 30.3838 171.747 30.5247 171.12 30.5062C170.502 30.5233 169.889 30.3824 169.341 30.0969C168.844 29.8198 168.443 29.3987 168.192 28.8897C167.923 28.3032 167.79 27.6643 167.803 27.02V21.1372H169.365V27.0635C169.333 27.5785 169.497 28.0866 169.823 28.4881C169.991 28.6559 170.192 28.7864 170.415 28.8706C170.637 28.9549 170.875 28.991 171.112 28.9767C171.355 28.993 171.598 28.9579 171.826 28.8737C172.054 28.7894 172.262 28.658 172.434 28.4881C172.76 28.086 172.923 27.5784 172.893 27.0635V21.1372H174.463Z" fill="#84786C"/>
<path d="M183.557 28.9204V30.4141H177.448V21.1372H179.01V28.9204H183.557Z" fill="#84786C"/>
<path d="M192.158 28.9204V30.4141H186.049V21.1372H187.611V28.9204H192.158Z" fill="#84786C"/>
<path d="M196.212 21.1372H194.65V30.4141H196.212V21.1372Z" fill="#84786C"/>
<path d="M206.432 21.1372V30.4013H205.043L204.997 30.3348L200.999 24.1349V30.4013H199.45V21.1372H200.829L200.872 21.2062L204.881 27.4957V21.1372H206.432Z" fill="#84786C"/>
<path d="M213.345 21.1372H212.056L208.61 30.4141H210.288L210.976 28.4421H214.422L215.11 30.4141H216.778L213.345 21.1372ZM211.484 26.9484L212.7 23.4519L213.92 26.9484H211.484Z" fill="#84786C"/>
<path d="M48.1225 4.53488V6.36878H51.7981V8.31778H48.1225V10.0852H52.4863V12.0342H46.1353V2.58588H52.4863V4.53488H48.1225Z" fill="#84786C"/>
<path d="M63.0746 2.58588L59.9609 12.0342H58.4221L58.3886 11.9421L55.311 2.58588H57.3782L59.1928 8.36382L61.0177 2.58588H63.0746Z" fill="#84786C"/>
<path d="M83.0044 4.17167C82.709 3.65314 82.2587 3.23844 81.7156 2.98487C81.0914 2.70655 80.4124 2.57022 79.7283 2.58586H76.5889V12.0495H79.7257C80.427 12.0722 81.1236 11.9275 81.7568 11.6275C82.2944 11.3656 82.736 10.9435 83.0198 10.4202C83.3137 9.86941 83.4602 9.25291 83.4451 8.62981V6.0158C83.4596 5.37379 83.3079 4.73882 83.0044 4.17167V4.17167ZM81.3908 8.67074C81.4039 8.86509 81.3735 9.05991 81.3018 9.24122C81.23 9.42253 81.1187 9.58583 80.9758 9.71941C80.6352 9.98997 80.2049 10.1241 79.7696 10.0954H78.589V4.53486H79.7696C80.2049 4.50615 80.6352 4.64029 80.9758 4.91085C81.1184 5.04684 81.2293 5.21202 81.301 5.39489C81.3727 5.57777 81.4033 5.77394 81.3908 5.96976V8.67074Z" fill="#84786C"/>
<path d="M89.3812 4.53488V6.36878H93.0567V8.33057H89.3812V10.0954H93.745V12.0444L89.3812 12.0546H87.3965V2.58588H93.745V4.53488H89.3812Z" fill="#84786C"/>
<path d="M104.14 9.16183C104.155 9.71199 104.007 10.2544 103.715 10.7221C103.407 11.1705 102.971 11.5163 102.462 11.7145C101.851 11.9478 101.199 12.0599 100.544 12.0444C100.111 12.0436 99.6791 11.9982 99.2554 11.9088C98.8433 11.8254 98.4433 11.6914 98.0646 11.5098C97.7025 11.3479 97.3622 11.1417 97.0516 10.896L96.9614 10.8141L97.8919 9.16183L98.0285 9.27693C98.3736 9.55392 98.7667 9.76626 99.1884 9.90358C99.6285 10.0519 100.09 10.1288 100.555 10.1312C100.977 10.154 101.397 10.0657 101.774 9.87544C101.894 9.81073 101.995 9.71408 102.063 9.59624C102.132 9.4784 102.167 9.34396 102.163 9.20787C102.17 9.12158 102.16 9.03476 102.132 8.95258C102.105 8.8704 102.061 8.79456 102.003 8.72957C101.87 8.6065 101.708 8.51855 101.531 8.4738C101.26 8.39381 100.984 8.33312 100.704 8.2922C100.669 8.29055 100.634 8.28276 100.601 8.26918H100.498C99.9725 8.19765 99.4548 8.07864 98.9513 7.91365C98.5235 7.75385 98.1493 7.47828 97.8713 7.11819C97.5462 6.63993 97.3936 6.06665 97.4383 5.49147C97.422 4.93933 97.566 4.39418 97.8533 3.92101C98.1454 3.47721 98.5659 3.13131 99.0595 2.92861C99.6481 2.68673 100.281 2.56997 100.918 2.58587C101.265 2.59011 101.61 2.62867 101.949 2.70097C102.656 2.85795 103.326 3.14794 103.923 3.55526L104.026 3.62432L103.166 5.30987L103.039 5.21779C102.708 4.99493 102.349 4.81527 101.972 4.68322C101.637 4.56016 101.283 4.49443 100.926 4.48883C100.532 4.46735 100.14 4.55034 99.789 4.72926C99.6808 4.78661 99.5905 4.8722 99.5278 4.97678C99.4651 5.08137 99.4324 5.20097 99.4333 5.32266C99.4271 5.416 99.4404 5.50961 99.4723 5.59763C99.5043 5.68564 99.5542 5.76618 99.6189 5.83421C99.7469 5.97687 99.9118 6.08212 100.096 6.13858C100.393 6.22936 100.696 6.30197 101.003 6.35599L101.026 6.50434L101.049 6.36622C101.073 6.36622 101.096 6.37901 101.119 6.37901C101.142 6.38278 101.165 6.39057 101.186 6.40203H101.245C101.746 6.49994 102.238 6.64116 102.714 6.82405C103.127 6.9928 103.484 7.27276 103.745 7.6323C104.036 8.08812 104.174 8.62348 104.14 9.16183Z" fill="#84786C"/>
<path d="M120.636 6.65013V8.55309C120.645 9.18586 120.5 9.81143 120.213 10.3768C119.935 10.898 119.512 11.3293 118.994 11.6198C118.44 11.9147 117.819 12.0635 117.19 12.0521C116.564 12.0626 115.945 11.9222 115.386 11.6428C114.87 11.3822 114.443 10.9776 114.156 10.4791C113.861 9.94951 113.711 9.35252 113.721 8.74748V6.08487C113.712 5.45179 113.858 4.826 114.146 4.2612C114.423 3.74044 114.845 3.30981 115.363 3.02069C115.916 2.72406 116.538 2.57428 117.167 2.58588C117.699 2.57413 118.227 2.68787 118.706 2.91774C119.186 3.14762 119.603 3.48707 119.925 3.90823C120.239 4.34531 120.455 4.8442 120.559 5.37126L120.595 5.54263H118.468L118.435 5.45311C118.385 5.28592 118.289 5.13556 118.159 5.01829C118.031 4.8942 117.878 4.79757 117.711 4.73438C117.535 4.66609 117.348 4.63138 117.159 4.63207C116.902 4.62462 116.648 4.68745 116.424 4.81367C116.219 4.93307 116.056 5.11147 115.955 5.32522C115.837 5.56371 115.778 5.82678 115.783 6.09254V8.73981C115.777 8.97232 115.836 9.20188 115.955 9.40226C116.069 9.5936 116.236 9.74752 116.437 9.84475C116.671 9.95154 116.926 10.0068 117.184 10.0068C117.441 10.0068 117.696 9.95154 117.93 9.84475C118.136 9.73266 118.304 9.56158 118.412 9.35367C118.531 9.11565 118.591 8.85225 118.584 8.58634V8.58634H117.205V6.65013H120.636Z" fill="#84786C"/>
<path d="M131.802 2.58588V12.0444H129.47L126.498 5.9135V12.0444H124.58V2.58588H126.897L129.885 8.8191V2.58588H131.802Z" fill="#84786C"/>
<path d="M143.721 0.260895H142.159V14.4129H143.721V0.260895Z" fill="#84786C"/>
<path d="M155.768 2.58588H154.206V12.0316H155.768V2.58588Z" fill="#84786C"/>
<path d="M165.965 2.58588V12.0342H164.586L160.534 5.63982V12.0342H158.995V2.58588H160.372L160.408 2.65494L164.426 9.08254V2.58588H165.965Z" fill="#84786C"/>
<path d="M175.128 2.58588V4.08983H172.568V12.0342H171.017V4.08983H168.457V2.58588H175.128Z" fill="#84786C"/>
<path d="M178.917 4.08983V6.58619H182.788V8.10293H178.917V10.5302H183.464V12.0342H177.368V2.58588H183.464V4.08983H178.917Z" fill="#84786C"/>
<path d="M191.124 7.9648C191.235 7.92208 191.342 7.87254 191.446 7.81645C191.86 7.5895 192.199 7.24948 192.423 6.83684C192.659 6.38696 192.776 5.8857 192.766 5.37893C192.777 4.87212 192.659 4.37078 192.423 3.92101C192.199 3.50468 191.861 3.16039 191.446 2.92861C191.001 2.69422 190.502 2.57627 189.998 2.58587H186.268V12.0342H187.815V8.15919H189.48L191.408 12.0342H193.245L191.124 7.9648ZM190.044 6.65012H187.817V4.09238H190.044C190.246 4.08767 190.444 4.14286 190.614 4.25086C190.784 4.35886 190.918 4.51476 190.998 4.69857C191.095 4.91294 191.143 5.14636 191.137 5.38148C191.144 5.61532 191.098 5.84769 191.003 6.06184C190.922 6.2428 190.79 6.39714 190.624 6.50689C190.448 6.60808 190.247 6.65774 190.044 6.65012V6.65012Z" fill="#84786C"/>
<path d="M197.406 2.58588H195.856V12.0316H197.406V2.58588Z" fill="#84786C"/>
<path d="M206.695 4.23817C206.434 3.72706 206.027 3.3036 205.525 3.02068C204.992 2.72588 204.39 2.57589 203.78 2.58587C203.173 2.57452 202.574 2.72465 202.045 3.02068C201.541 3.30587 201.131 3.7284 200.862 4.23817C200.589 4.79567 200.451 5.40882 200.46 6.02859V8.58633C200.451 9.20612 200.589 9.81934 200.862 10.3767C201.129 10.8888 201.54 11.3128 202.045 11.5968C202.575 11.8908 203.173 12.0399 203.78 12.0291C204.389 12.0386 204.991 11.8896 205.525 11.5968C206.026 11.3122 206.433 10.8881 206.695 10.3767C206.978 9.82249 207.121 9.2078 207.11 8.58633V6.02859C207.121 5.40715 206.978 4.79253 206.695 4.23817V4.23817ZM204.697 10.2898C204.417 10.4436 204.1 10.5221 203.78 10.5174C203.462 10.5238 203.149 10.4451 202.872 10.2898C202.61 10.1364 202.399 9.91067 202.264 9.64012C202.111 9.32823 202.036 8.98431 202.045 8.63748V6.00557C202.034 5.65861 202.11 5.31434 202.264 5.00293C202.396 4.73312 202.603 4.50604 202.86 4.34815C203.142 4.19879 203.458 4.12068 203.778 4.12068C204.099 4.12068 204.414 4.19879 204.697 4.34815C204.952 4.50709 205.159 4.73161 205.295 4.99782C205.449 5.31682 205.523 5.66762 205.512 6.02091V8.63748C205.522 8.9841 205.448 9.32801 205.295 9.64012C205.159 9.90677 204.953 10.1314 204.697 10.2898V10.2898Z" fill="#84786C"/>
<path d="M214.884 7.9648C214.994 7.92103 215.102 7.87152 215.206 7.81645C215.623 7.5899 215.965 7.25002 216.193 6.83683C216.429 6.38695 216.547 5.88569 216.536 5.37892C216.547 4.87211 216.429 4.37077 216.193 3.92101C215.966 3.50722 215.628 3.16378 215.217 2.9286C214.767 2.69421 214.265 2.57632 213.758 2.58586H210.025V12.0342H211.587V8.15919H213.242L215.17 12.0342H217.008L214.884 7.9648ZM214.758 4.696C214.853 4.91094 214.9 5.14409 214.894 5.37892C214.899 5.6137 214.853 5.84672 214.758 6.06184C214.676 6.2428 214.545 6.39713 214.379 6.50688C214.209 6.60928 214.013 6.6608 213.814 6.65523H211.587V4.09237H213.814C214.014 4.09064 214.21 4.14662 214.379 4.25351C214.545 4.36257 214.676 4.51598 214.758 4.696V4.696Z" fill="#84786C"/>
<path d="M69.6988 2.58588H68.4101L64.9124 11.8398L64.8428 12.0342H66.9899L67.4383 10.7425H70.6654L71.1242 12.0419H73.2584L69.6988 2.58588ZM68.1266 8.76282L69.057 6.07464L69.9875 8.76282H68.1266Z" fill="#84786C"/>
<path d="M109.914 0.969386C109.913 1.0306 109.905 1.09153 109.89 1.15099C109.866 1.25635 109.823 1.35672 109.764 1.44768C109.707 1.5372 109.651 1.62928 109.581 1.72136C109.51 1.80227 109.433 1.87832 109.352 1.949C109.28 2.0192 109.203 2.08416 109.122 2.14339C109.086 2.17664 109.053 2.19966 109.019 2.23291C108.975 2.26051 108.933 2.29128 108.893 2.32499L108.823 2.34801C108.797 2.35369 108.77 2.35369 108.743 2.34801H108.663C108.642 2.3384 108.622 2.32638 108.604 2.3122C108.56 2.28988 108.517 2.26333 108.478 2.23291C108.444 2.19966 108.398 2.17664 108.364 2.14339C108.331 2.11014 108.272 2.06154 108.215 2.01806C108.158 1.97458 108.112 1.92598 108.065 1.87994C108.019 1.8339 107.962 1.77763 107.916 1.72136C107.867 1.66472 107.825 1.60297 107.79 1.53721C107.747 1.47903 107.709 1.41839 107.674 1.35561C107.647 1.28898 107.624 1.22062 107.607 1.15099C107.588 1.09242 107.58 1.03083 107.583 0.969386C107.581 0.876044 107.597 0.78311 107.63 0.695708C107.656 0.615068 107.699 0.540911 107.756 0.478299C107.815 0.409111 107.889 0.354748 107.973 0.319719C108.111 0.262528 108.263 0.246532 108.411 0.27368C108.462 0.28726 108.513 0.306118 108.56 0.32995C108.606 0.35607 108.648 0.38694 108.687 0.422029C108.71 0.435311 108.73 0.454768 108.743 0.478299L108.813 0.40924C108.852 0.378647 108.895 0.352082 108.939 0.32995C108.985 0.303571 109.034 0.284577 109.086 0.27368C109.114 0.274833 109.142 0.270488 109.169 0.260891C109.29 0.253073 109.412 0.273205 109.524 0.319719C109.605 0.355016 109.676 0.409473 109.731 0.478299C109.786 0.543788 109.832 0.617029 109.867 0.695708C109.9 0.78311 109.916 0.876044 109.914 0.969386V0.969386Z" fill="#84786C"/>
<path d="M109.767 2.92862H107.733V12.0444H109.767V2.92862Z" fill="#84786C"/>
<path d="M36.5362 10.0289C36.5124 7.38623 35.4389 4.85958 33.5488 2.99768C32.6098 2.04835 31.4895 1.2943 30.2534 0.779591C29.0174 0.264886 27.6903 -0.00014054 26.3498 3.1458e-06C24.5704 0.0047386 22.8251 0.485407 21.2978 1.39142C21.1573 1.46626 21.0229 1.55177 20.8957 1.64719L20.839 1.68044C20.8136 1.69215 20.7901 1.70768 20.7694 1.72648C20.3605 1.99717 19.9727 2.29814 19.6095 2.62681L18.2305 3.75989L17.4856 3.15626C16.961 2.61773 16.3833 2.13275 15.7613 1.70858C15.7237 1.69626 15.6888 1.67718 15.6582 1.65231C15.5215 1.56023 15.3824 1.47071 15.2457 1.39653C13.7188 0.489081 11.9736 0.00666365 10.1938 3.1458e-06C8.85276 -0.00105242 7.52502 0.263549 6.28838 0.778297C5.05175 1.29305 3.93111 2.04758 2.99215 2.99768C1.10376 4.86047 0.0313349 7.38677 0.00736863 10.0289V10.1977C0.00736863 10.2566 0.00736863 10.3 0.00736863 10.3358C-0.0261393 10.9983 -0.188524 16.7635 6.13932 22.9148C9.08029 25.8332 12.3795 28.6135 17.4495 32.7033C17.6797 32.8914 17.9685 32.9944 18.2666 32.9949C18.5686 32.9979 18.8615 32.8925 19.0914 32.6982C24.1692 28.6058 27.4761 25.8383 30.4145 22.9097C36.7321 16.7711 36.5697 10.9804 36.5233 10.3537C36.534 10.2458 36.5383 10.1373 36.5362 10.0289V10.0289ZM28.5768 21.0809C25.8575 23.7947 22.7335 26.4266 18.2666 30.033C13.707 26.3448 10.699 23.8151 7.95391 21.0809C4.97943 18.1753 3.69324 15.4411 3.13134 13.6635C2.78924 12.6493 2.61514 11.5869 2.61583 10.5174C2.62158 10.4494 2.62158 10.3809 2.61583 10.3128C2.61074 10.2183 2.61074 10.1235 2.61583 10.0289C2.61583 5.98256 6.0955 2.57565 10.2067 2.57565C11.5767 2.58307 12.9169 2.97405 14.073 3.70361C14.8751 4.18964 15.5824 4.81521 16.1608 5.55031L11.4104 9.43552L11.4336 9.48156L11.1758 9.70919C11.0168 9.92789 10.9327 10.1915 10.9361 10.4612V20.3622C10.9364 20.5353 10.9712 20.7066 11.0384 20.8663C11.1057 21.026 11.204 21.171 11.3278 21.2929C11.4516 21.4148 11.5985 21.5112 11.7599 21.5767C11.9214 21.6422 12.0943 21.6753 12.2687 21.6743H24.2955C24.4698 21.6753 24.6425 21.6421 24.8039 21.5766C24.9652 21.5112 25.1119 21.4147 25.2355 21.2927C25.3591 21.1708 25.4572 21.0258 25.5241 20.8661C25.591 20.7064 25.6255 20.5352 25.6255 20.3622V10.4612C25.6236 10.2653 25.5785 10.0723 25.4935 9.89554C25.4084 9.7188 25.2855 9.56266 25.1332 9.43807L21.7566 6.66548C21.6591 6.58764 21.5377 6.5452 21.4125 6.5452C21.2873 6.5452 21.1659 6.58764 21.0684 6.66548L19.8157 7.6451C19.7516 7.69362 19.6989 7.75531 19.6611 7.82594C19.6233 7.89657 19.6013 7.97449 19.5966 8.05434C19.5968 8.13763 19.6157 8.21984 19.6518 8.29503C19.6879 8.37022 19.7403 8.43653 19.8054 8.48915L22.9629 11.075V19.0424H21.6406V14.6098C21.6406 13.1724 20.5864 12.0214 19.2873 12.0214H16.9211C15.6324 12.0214 14.5679 13.1724 14.5679 14.6098V19.0424H13.5807V11.1134L15.2148 9.73221L15.8592 9.22067C15.8592 9.22067 16.3747 8.76539 17.148 8.11572C19.3518 6.24601 22.0736 3.96706 22.4757 3.7164C23.6318 2.98684 24.972 2.59586 26.342 2.58844C30.4661 2.58844 33.9329 5.99535 33.9329 10.0417V10.1875C33.9278 10.2368 33.9278 10.2865 33.9329 10.3358C33.9267 10.3971 33.9267 10.4588 33.9329 10.52C33.9638 11.0418 34.0102 15.8171 28.5768 21.0809ZM16.7046 19.0347V14.6098C16.7038 14.5485 16.7253 14.489 16.765 14.442C16.8047 14.3951 16.8602 14.3639 16.9211 14.3541H19.2873C19.3487 14.3611 19.4048 14.392 19.4434 14.4399C19.4821 14.4878 19.5001 14.5488 19.4935 14.6098V19.0424L16.7046 19.0347Z" fill="#84786C"/>
</svg>
